<svg width="24" height="24" viewBox="0 0 24 24" fill="none" xmlns="http://www.w3.org/2000/svg">
<g id="Users">
<g id="Vector">
<path fill-rule="evenodd" clip-rule="evenodd" d="M6.5025 11.97H9.19407L12 13.1017L14.8059 11.97H17.4975L20.74 17.2159V21.2781L18.1082 21.8102L18.1061 21.8106C14.0767 22.6165 9.92335 22.6165 5.89388 21.8106L5.89182 21.8102L3.26 21.2781V17.2159L6.5025 11.97ZM7.6175 13.97L5.26 17.7841V19.642L6.28612 19.8494C10.056 20.6033 13.943 20.6035 17.7129 19.8496L18.74 19.642V17.7841L16.3825 13.97H15.1941L12 15.2583L8.80593 13.97H7.6175Z" fill="white"/>
<path fill-rule="evenodd" clip-rule="evenodd" d="M12 4.54001C10.8954 4.54001 10 5.43544 10 6.54001C10 7.64458 10.8954 8.54001 12 8.54001C13.1046 8.54001 14 7.64458 14 6.54001C14 5.43544 13.1046 4.54001 12 4.54001ZM8 6.54001C8 4.33087 9.79086 2.54001 12 2.54001C14.2091 2.54001 16 4.33087 16 6.54001C16 8.74915 14.2091 10.54 12 10.54C9.79086 10.54 8 8.74915 8 6.54001Z" fill="white"/>
</g>
</g>
</svg>
