<svg width="24" height="24" viewBox="0 0 24 24" fill="none" xmlns="http://www.w3.org/2000/svg">
<g id="attention">
<g id="Vector">
<path d="M12 3.09998C17 3.09998 21 7.09998 21 12.1C21 17.1 17 21.1 12 21.1C7 21.1 3 17.1 3 12.1C3 7.09998 7 3.09998 12 3.09998ZM12 1.09998C5.9 1.09998 1 5.99998 1 12.1C1 18.2 5.9 23.1 12 23.1C18.1 23.1 23 18.2 23 12.1C23 5.99998 18.1 1.09998 12 1.09998Z" fill="#F5F5F5"/>
<path fill-rule="evenodd" clip-rule="evenodd" d="M12 6.49998C12.5523 6.49998 13 6.94769 13 7.49998V13.5C13 14.0523 12.5523 14.5 12 14.5C11.4477 14.5 11 14.0523 11 13.5V7.49998C11 6.94769 11.4477 6.49998 12 6.49998Z" fill="#F5F5F5"/>
<path d="M12 17.6C11.7 17.6 11.5 17.5 11.3 17.3C11.2 17.2 11.1 17.1 11.1 17C11 16.9 11 16.7 11 16.6C11 16.5 11 16.3 11.1 16.2C11.1 16.1 11.2 16 11.3 15.9C11.7 15.5 12.3 15.5 12.7 15.9C12.8 16 12.9 16.1 12.9 16.2C13 16.3 13 16.4 13 16.6C13 16.9 12.9 17.1 12.7 17.3C12.5 17.5 12.3 17.6 12 17.6Z" fill="#F5F5F5"/>
</g>
</g>
</svg>
