<svg width="24" height="24" viewBox="0 0 24 24" fill="none" xmlns="http://www.w3.org/2000/svg">
<g id="close">
<g id="Vector">
<path fill-rule="evenodd" clip-rule="evenodd" d="M3.59523 3.69063C3.98702 3.30137 4.62018 3.30342 5.00944 3.69521L20.4094 19.1952C20.7987 19.587 20.7966 20.2202 20.4049 20.6094C20.0131 20.9987 19.3799 20.9966 18.9907 20.6048L3.59066 5.10484C3.2014 4.71305 3.20345 4.07989 3.59523 3.69063Z" fill="#474747"/>
<path fill-rule="evenodd" clip-rule="evenodd" d="M20.4049 3.69063C20.7966 4.07989 20.7987 4.71305 20.4094 5.10484L5.00944 20.6048C4.62018 20.9966 3.98702 20.9987 3.59523 20.6094C3.20345 20.2202 3.2014 19.587 3.59066 19.1952L18.9907 3.69521C19.3799 3.30342 20.0131 3.30137 20.4049 3.69063Z" fill="#474747"/>
</g>
</g>
</svg>
