<svg width="24" height="24" viewBox="0 0 24 24" fill="none" xmlns="http://www.w3.org/2000/svg">
<path d="M12 3C16.96 3 21 7.04 21 12C21 16.96 16.96 21 12 21C7.04 21 3 16.96 3 12C3 7.04 7.04 3 12 3ZM12 1C5.92 1 1 5.92 1 12C1 18.08 5.92 23 12 23C18.08 23 23 18.08 23 12C23 5.92 18.08 1 12 1Z" fill="#FF4545"/>
<path fill-rule="evenodd" clip-rule="evenodd" d="M12.0601 6.40991C12.6123 6.40991 13.0601 6.85763 13.0601 7.40991V13.3699C13.0601 13.9222 12.6123 14.3699 12.0601 14.3699C11.5078 14.3699 11.0601 13.9222 11.0601 13.3699V7.40991C11.0601 6.85763 11.5078 6.40991 12.0601 6.40991Z" fill="#FF4545"/>
<path d="M12 17.4799C11.74 17.4799 11.49 17.3699 11.3 17.1799C11.2 17.0899 11.13 16.9799 11.08 16.8599C11.03 16.7399 11 16.6099 11 16.4799C11 16.3499 11.03 16.2199 11.08 16.0999C11.13 15.9699 11.2 15.8599 11.3 15.7699C11.67 15.3999 12.34 15.3999 12.71 15.7699C12.8 15.8599 12.88 15.9699 12.93 16.0999C12.98 16.2199 13 16.3499 13 16.4799C13 16.7399 12.9 16.9999 12.71 17.1799C12.52 17.3699 12.27 17.4799 12 17.4799Z" fill="#FF4545"/>
</svg>
