<svg width="16" height="16" viewBox="0 0 16 16" fill="none" xmlns="http://www.w3.org/2000/svg">
<g id="Close">
<path id="Vector (Stroke)" fill-rule="evenodd" clip-rule="evenodd" d="M2.39674 2.4604C2.65793 2.2009 3.08004 2.20226 3.33955 2.46345L13.6062 12.7968C13.8657 13.058 13.8644 13.4801 13.6032 13.7396C13.342 13.9991 12.9199 13.9977 12.6604 13.7365L2.39369 3.40321C2.13418 3.14202 2.13555 2.71991 2.39674 2.4604Z" fill="#FFABAB"/>
<path id="Vector (Stroke)_2" fill-rule="evenodd" clip-rule="evenodd" d="M13.6032 2.4604C13.8644 2.71991 13.8657 3.14202 13.6062 3.40321L3.33955 13.7365C3.08004 13.9977 2.65793 13.9991 2.39674 13.7396C2.13555 13.4801 2.13418 13.058 2.39369 12.7968L12.6604 2.46345C12.9199 2.20226 13.342 2.2009 13.6032 2.4604Z" fill="#FFABAB"/>
</g>
</svg>
