<svg width="24" height="24" viewBox="0 0 24 24" fill="none" xmlns="http://www.w3.org/2000/svg">
<path d="M14.8699 16.98C13.9199 17.45 12.9499 17.72 11.9999 17.72C8.93993 17.72 5.68993 14.86 3.49993 11.99C4.37993 10.83 5.43993 9.68004 6.58993 8.71004L5.16993 7.29004C3.38993 8.83004 2.04993 10.55 1.42993 11.42C1.17993 11.76 1.17993 12.22 1.42993 12.56C2.69993 14.35 6.94993 19.72 11.9999 19.72C13.5499 19.72 15.0199 19.21 16.3499 18.46L14.8599 16.98H14.8699Z" fill="#222222"/>
<path d="M22.5599 11.43C21.2799 9.64003 17.0399 4.28003 11.9999 4.28003C10.4499 4.28003 8.9799 4.79003 7.6499 5.54003L9.1299 7.02003C10.0799 6.55003 11.0499 6.28003 11.9999 6.28003C15.0599 6.28003 18.3099 9.14003 20.4999 12.01C19.6199 13.17 18.5599 14.32 17.4099 15.29L18.8299 16.71C20.6099 15.18 21.9399 13.46 22.5599 12.59C22.8099 12.24 22.8099 11.79 22.5599 11.44V11.43Z" fill="#222222"/>
<path d="M11.9999 8.26001C11.5199 8.26001 11.0599 8.36001 10.6399 8.53001L12.4399 10.33C13.0499 10.49 13.5199 10.96 13.6799 11.57L15.4799 13.37C15.6399 12.95 15.7399 12.49 15.7399 12.02C15.7399 9.96001 14.0599 8.28001 11.9999 8.28001V8.26001Z" fill="#222222"/>
<path d="M10.32 12.4399L8.52001 10.6399C8.36001 11.0599 8.26001 11.5199 8.26001 11.9999C8.26001 14.0699 9.94001 15.7499 12.01 15.7499C12.49 15.7499 12.95 15.6499 13.37 15.4799L11.57 13.6799C10.96 13.5199 10.48 13.0499 10.32 12.4399Z" fill="#222222"/>
<path d="M4.26001 4.27002L19.74 19.73" stroke="#222222" stroke-width="2" stroke-miterlimit="10" stroke-linecap="round"/>
</svg>
