<svg width="20" height="20" viewBox="0 0 20 20" fill="none" xmlns="http://www.w3.org/2000/svg">
<g id="Edit" clip-path="url(#clip0_279_349)">
<g id="Vector">
<path d="M15.3334 19.225H4.66669C2.52502 19.225 0.775024 17.4833 0.775024 15.3333V4.69998C0.783358 2.55832 2.52502 0.81665 4.66669 0.81665H11.6667L10.8334 2.48332H4.66669C3.44169 2.48332 2.44169 3.48332 2.44169 4.70832V15.3417C2.44169 16.5667 3.44169 17.5667 4.66669 17.5667H15.3334C16.5584 17.5667 17.5584 16.5667 17.5584 15.3417V9.15832L19.225 8.32498V15.3417C19.225 17.4833 17.4834 19.2333 15.3334 19.2333V19.225Z" fill="#14214D"/>
<path fill-rule="evenodd" clip-rule="evenodd" d="M16.7313 4.46388L9.83964 11.3639L8.66042 10.1861L15.5521 3.28608L16.7313 4.46388Z" fill="#14214D"/>
<path fill-rule="evenodd" clip-rule="evenodd" d="M18.3643 2.84757L17.2143 3.99757L16.0358 2.81906L17.1858 1.66906L18.3643 2.84757Z" fill="#14214D"/>
<path d="M7.97503 12.0417L8.1917 10.65L9.3667 11.825L7.97503 12.0417Z" fill="#14214D"/>
</g>
</g>
<defs>
<clipPath id="clip0_279_349">
<rect width="20" height="20" fill="white"/>
</clipPath>
</defs>
</svg>
