<svg width="20" height="21" viewBox="0 0 20 21" fill="none" xmlns="http://www.w3.org/2000/svg">
<g id="Eye">
<g id="Vector">
<path d="M9.99998 5.72502C12.8417 5.72502 15.675 8.64168 17.0917 10.5C15.675 12.3583 12.8583 15.2667 9.99998 15.2667C7.14165 15.2667 4.32498 12.35 2.90832 10.4917C4.32498 8.63335 7.14165 5.72502 9.99998 5.72502ZM9.99998 4.05835C4.95832 4.05835 0.86665 10.5 0.86665 10.5C0.86665 10.5 4.95832 16.9417 9.99998 16.9417C15.0417 16.9417 19.1333 10.5 19.1333 10.5C19.1333 10.5 15.0417 4.05835 9.99998 4.05835Z" fill="#14214D"/>
<path fill-rule="evenodd" clip-rule="evenodd" d="M10 9.05002C9.1992 9.05002 8.55001 9.6992 8.55001 10.5C8.55001 11.3008 9.1992 11.95 10 11.95C10.8008 11.95 11.45 11.3008 11.45 10.5C11.45 9.6992 10.8008 9.05002 10 9.05002ZM6.88334 10.5C6.88334 8.77873 8.27872 7.38335 10 7.38335C11.7213 7.38335 13.1167 8.77873 13.1167 10.5C13.1167 12.2213 11.7213 13.6167 10 13.6167C8.27872 13.6167 6.88334 12.2213 6.88334 10.5Z" fill="#14214D"/>
</g>
</g>
</svg>
