<svg width="24" height="24" viewBox="0 0 24 24" fill="none" xmlns="http://www.w3.org/2000/svg">
<path d="M12 14.74C13.5133 14.74 14.74 13.5133 14.74 12C14.74 10.4867 13.5133 9.26 12 9.26C10.4867 9.26 9.26001 10.4867 9.26001 12C9.26001 13.5133 10.4867 14.74 12 14.74Z" stroke="#767676" stroke-width="2" stroke-miterlimit="10"/>
<path d="M12.0001 6.27C15.0601 6.27 18.3101 9.13 20.5001 12C18.3101 14.87 15.0601 17.73 12.0001 17.73C8.94005 17.73 5.69005 14.87 3.50005 12C5.69005 9.13 8.94005 6.27 12.0001 6.27ZM12.0001 4.27C6.95005 4.27 2.71005 9.64 1.43005 11.43C1.18005 11.77 1.18005 12.23 1.43005 12.57C2.70005 14.36 6.95005 19.73 12.0001 19.73C17.0501 19.73 21.2901 14.37 22.5601 12.58C22.8101 12.23 22.8101 11.78 22.5601 11.43C21.2801 9.64 17.0401 4.28 12.0001 4.28V4.27Z" fill="#767676"/>
</svg>
