<svg width="97" height="16" viewBox="0 0 97 16" fill="none" xmlns="http://www.w3.org/2000/svg">
<g id="Logo Proscom" clip-path="url(#clip0_16_25)">
<path id="Vector" fill-rule="evenodd" clip-rule="evenodd" d="M26.328 7.999C26.328 4.042 29.324 0.799 33.445 0.799C37.565 0.799 40.524 4.001 40.524 7.999C40.524 11.957 37.529 15.199 33.407 15.199C29.285 15.199 26.328 11.993 26.328 7.999ZM37.453 7.999C37.453 5.617 35.773 3.624 33.407 3.624C31.041 3.624 29.401 5.57 29.401 7.999C29.401 10.381 31.081 12.376 33.445 12.376C35.809 12.376 37.453 10.423 37.453 7.999ZM5.453 1.034H0V14.958H2.937V10.78H5.165C8.161 10.78 10.565 9.11 10.565 5.887C10.565 3.004 8.639 1.034 5.453 1.034ZM7.593 5.908C7.593 7.141 6.735 8.055 5.266 8.055L2.937 8.051V3.8H5.21C6.679 3.8 7.594 4.536 7.594 5.909L7.593 5.908ZM19.226 1.034H13.12V14.958H16.057V10.5H18.342L21.234 14.957H24.661L21.397 9.983C23.096 9.328 24.259 7.914 24.259 5.667C24.259 4.317 23.861 3.221 23.117 2.445C22.239 1.53 20.924 1.033 19.225 1.033L19.226 1.034ZM21.287 5.787C21.287 7.002 20.467 7.797 19.035 7.797H16.058V3.799H18.978C20.409 3.799 21.287 4.476 21.287 5.787ZM43.474 10.762L41.744 12.932C43.2854 14.3665 45.3144 15.1615 47.42 15.156C50.292 15.156 52.315 13.605 52.315 10.84C52.315 8.374 50.781 7.36 48.073 6.625C45.763 6.007 45.193 5.71 45.193 4.795C45.193 4.078 45.783 3.541 46.909 3.541C48.035 3.541 49.199 4.063 50.382 4.914L51.907 2.607C50.5209 1.43863 48.7597 0.809775 46.947 0.836C44.218 0.836 42.273 2.506 42.273 5.033C42.273 7.838 44.009 8.613 46.698 9.33C48.931 9.925 49.389 10.323 49.389 11.099C49.389 11.955 48.665 12.451 47.462 12.451C45.936 12.451 44.677 11.796 43.474 10.762ZM53.898 8C53.898 4.043 56.761 0.8 60.863 0.8C63.381 0.8 64.793 1.794 66.033 3.068L64.279 5.176C63.247 4.201 62.369 3.625 60.852 3.625C58.6 3.625 56.978 5.575 56.978 8C56.978 10.382 58.562 12.377 60.852 12.377C62.378 12.377 63.312 11.739 64.362 10.746L66.232 12.833C64.858 14.363 63.332 15.201 60.756 15.201C56.818 15.197 53.898 12.035 53.898 8ZM74.333 0.8C70.211 0.8 67.217 4.043 67.217 8C67.217 11.994 70.175 15.2 74.296 15.2C78.416 15.2 81.412 11.958 81.412 8C81.412 4.002 78.455 0.8 74.333 0.8ZM74.296 3.625C76.66 3.625 78.34 5.618 78.34 8C78.34 10.424 76.7 12.377 74.333 12.377C71.967 12.377 70.288 10.382 70.288 8C70.288 5.57 71.931 3.625 74.296 3.625ZM83.643 1.035H86.81L90.322 8.635L93.832 1.035H96.999V14.959H94.08V5.869L94.014 5.972L90.463 13.528H90.171L86.555 5.985L86.578 6.011L86.529 5.934V14.966H83.643V1.035Z" fill="white"/>
</g>
<defs>
<clipPath id="clip0_16_25">
<rect width="97" height="16" fill="white"/>
</clipPath>
</defs>
</svg>
