<svg width="24" height="24" viewBox="0 0 24 24" fill="none" xmlns="http://www.w3.org/2000/svg">
<g id="Notification">
<path id="Subtract" fill-rule="evenodd" clip-rule="evenodd" d="M13 1.47998V2.91877C16.0721 3.40306 18.42 6.06134 18.42 9.26998V11.0005C17.7212 11.0089 17.049 11.1276 16.42 11.3399V9.26998C16.42 6.82393 14.4404 4.84268 11.9949 4.83998C9.53754 4.84269 7.51995 6.8358 7.51995 9.26998V14.6197L6.19995 15.2997V16.2629L11.99 16.28L12.1143 16.2796C12.0392 16.6749 11.9999 17.0829 11.9999 17.5C11.9999 17.7639 12.0157 18.0241 12.0462 18.2798L11.987 18.28L4.19995 18.257V14.0802L5.51995 13.4002V9.26998C5.51995 6.04765 7.92279 3.39612 11 2.91715V1.47998H13ZM12.5901 20.21H9.68996C9.68996 21.49 10.72 22.52 12 22.52C12.6473 22.52 13.2307 22.254 13.6492 21.8268C13.2205 21.3465 12.8621 20.8022 12.5901 20.21Z" fill="#14214D"/>
<circle id="Ellipse 2" cx="18.5" cy="17.5" r="5.5" fill="#980E08"/>
</g>
</svg>
