<svg width="24" height="24" viewBox="0 0 24 24" fill="none" xmlns="http://www.w3.org/2000/svg">
<g id="Notification">
<g id="Vector">
<path fill-rule="evenodd" clip-rule="evenodd" d="M12 2.83998C15.5476 2.84538 18.42 5.72103 18.42 9.26998V13.3919L19.78 14.0719V18.257L11.987 18.28L4.19995 18.257V14.0802L5.51995 13.4002V9.26998C5.51995 5.70917 8.45409 2.84538 11.99 2.83999L12 2.83998ZM11.9949 4.83998C9.53754 4.84269 7.51995 6.8358 7.51995 9.26998V14.6197L6.19995 15.2997V16.2629L11.99 16.28L17.78 16.2629V15.308L16.42 14.628V9.26998C16.42 6.82393 14.4404 4.84268 11.9949 4.83998Z" fill="#14214D"/>
<path fill-rule="evenodd" clip-rule="evenodd" d="M13 1.47998V3.83998H11V1.47998H13Z" fill="#14214D"/>
<path d="M14.31 20.21C14.31 21.48 13.28 22.52 12 22.52C10.72 22.52 9.68996 21.49 9.68996 20.21" fill="#14214D"/>
</g>
</g>
</svg>
