<svg width="24" height="24" viewBox="0 0 24 24" fill="none" xmlns="http://www.w3.org/2000/svg">
<path d="M12 14.74C13.5133 14.74 14.74 13.5133 14.74 12C14.74 10.4867 13.5133 9.26001 12 9.26001C10.4867 9.26001 9.26001 10.4867 9.26001 12C9.26001 13.5133 10.4867 14.74 12 14.74Z" stroke="#222222" stroke-width="2" stroke-miterlimit="10"/>
<path d="M11.9999 6.27002C15.0599 6.27002 18.3099 9.13002 20.4999 12C18.3099 14.87 15.0599 17.73 11.9999 17.73C8.93993 17.73 5.68993 14.87 3.49993 12C5.68993 9.13002 8.93993 6.27002 11.9999 6.27002ZM11.9999 4.27002C6.94993 4.27002 2.70993 9.64002 1.42993 11.43C1.17993 11.77 1.17993 12.23 1.42993 12.57C2.69993 14.36 6.94993 19.73 11.9999 19.73C17.0499 19.73 21.2899 14.37 22.5599 12.58C22.8099 12.23 22.8099 11.78 22.5599 11.43C21.2799 9.64002 17.0399 4.28002 11.9999 4.28002V4.27002Z" fill="#222222"/>
</svg>
