<svg width="72" height="72" viewBox="0 0 72 72" fill="none" xmlns="http://www.w3.org/2000/svg">
<g id="Success">
<g id="Vector">
<path d="M36 9C50.7 9 63 21 63 36C63 50.7 51 63 36 63C21.3 63 9 51 9 36C9 21.3 21 9 36 9ZM36 3C17.7 3 3 17.7 3 36C3 54.3 17.7 69 36 69C54.3 69 69 54.3 69 36C69 17.7 54.3 3 36 3Z" fill="#14214D"/>
<path fill-rule="evenodd" clip-rule="evenodd" d="M30.8835 39.0051L48.8947 21.2628L53.1053 25.5372L30.9165 47.3948L18.9116 35.7537L23.0884 31.4463L30.8835 39.0051Z" fill="#14214D"/>
</g>
</g>
</svg>
