<svg width="24" height="24" viewBox="0 0 24 24" fill="none" xmlns="http://www.w3.org/2000/svg">
<path fill-rule="evenodd" clip-rule="evenodd" d="M11.46 3.66C7.15772 3.66 3.67001 7.1477 3.67001 11.45C3.67001 15.7523 7.15772 19.24 11.46 19.24C15.7623 19.24 19.25 15.7523 19.25 11.45C19.25 7.1477 15.7623 3.66 11.46 3.66ZM1.67001 11.45C1.67001 6.04313 6.05315 1.66 11.46 1.66C16.8669 1.66 21.25 6.04313 21.25 11.45C21.25 16.8569 16.8669 21.24 11.46 21.24C6.05315 21.24 1.67001 16.8569 1.67001 11.45Z" fill="#14214D"/>
<path fill-rule="evenodd" clip-rule="evenodd" d="M18.3771 16.9629L22.0471 20.6329L20.6329 22.0471L16.9629 18.3771L18.3771 16.9629Z" fill="#14214D"/>
</svg>
