<svg width="24" height="24" viewBox="0 0 24 24" fill="none" xmlns="http://www.w3.org/2000/svg">
<g id="Success">
<g id="Vector">
<path d="M12 3C16.9 3 21 7 21 12C21 16.9 17 21 12 21C7.1 21 3 17 3 12C3 7.1 7 3 12 3ZM12 1C5.9 1 1 5.9 1 12C1 18.1 5.9 23 12 23C18.1 23 23 18.1 23 12C23 5.9 18.1 1 12 1Z" fill="#14214D"/>
<path fill-rule="evenodd" clip-rule="evenodd" d="M10.2945 13.0017L16.2982 7.0876L17.7018 8.5124L10.3055 15.7983L6.30385 11.9179L7.69615 10.4821L10.2945 13.0017Z" fill="#14214D"/>
</g>
</g>
</svg>
